<svg width="44" height="44" viewBox="0 0 44 44" fill="none" xmlns="http://www.w3.org/2000/svg">
  <rect width="44" height="44" rx="6" fill="#EFF6FF"/>
  <path d="M15.5 18.5c0-1.1.9-2 2-2h2.2c.4 0 .8.2 1 .6l1.1 2.2c.2.4.1.9-.2 1.2l-1 1c1.4 2.2 3.2 4 5.4 5.4l1-1c.3-.3.8-.4 1.2-.2l2.2 1.1c.4.2.6.6.6 1V30c0 1.1-.9 2-2 2C18.6 32 12 25.4 12 17.5c0-1.1.9-2 2-2h1.5v3Z" stroke="#1447E6" stroke-width="1.5" stroke-linecap="round" stroke-linejoin="round"/>
  <path d="M26.5 14.5h5v5M31.5 14.5 24 22" stroke="#1447E6" stroke-width="1.5" stroke-linecap="round" stroke-linejoin="round"/>
</svg>
